<?xml version="1.0" standalone="no"?>
<!DOCTYPE svg PUBLIC "-//W3C//DTD SVG 20010904//EN"
 "http://www.w3.org/TR/2001/REC-SVG-20010904/DTD/svg10.dtd">
<svg version="1.0" xmlns="http://www.w3.org/2000/svg"
 width="512.000000pt" height="512.000000pt" viewBox="0 0 512.000000 512.000000"
 preserveAspectRatio="xMidYMid meet">

<g transform="translate(0.000000,512.000000) scale(0.100000,-0.100000)"
fill="#000000" stroke="none">
<path d="M2185 4906 c-338 -56 -601 -191 -841 -430 -218 -218 -344 -448 -416
-758 -21 -90 -22 -116 -26 -848 -2 -509 0 -786 8 -850 24 -210 79 -405 165
-587 60 -127 86 -153 134 -134 16 7 34 24 40 38 10 22 5 38 -39 135 -64 137
-112 284 -142 430 -23 112 -23 119 -23 903 0 733 1 796 19 874 121 555 527
960 1079 1078 61 13 128 18 262 18 200 0 262 -9 425 -61 203 -65 366 -163 526
-316 203 -196 334 -430 396 -713 17 -74 21 -140 25 -374 l5 -284 25 -25 c28
-28 67 -24 97 11 17 21 18 40 13 302 -5 297 -13 366 -63 533 -156 520 -584
916 -1119 1037 -100 23 -149 28 -295 31 -115 2 -203 -1 -255 -10z"/>
<path d="M1720 3658 c-138 -69 -220 -258 -193 -446 37 -249 227 -393 409 -308
221 103 275 477 99 683 -76 89 -215 120 -315 71z"/>
<path d="M2872 3658 c-135 -65 -220 -262 -193 -446 29 -192 154 -332 297 -332
184 0 314 168 314 406 0 174 -78 318 -204 375 -57 26 -158 25 -214 -3z"/>
<path d="M3806 2816 c-25 -24 -26 -30 -26 -144 0 -111 1 -120 23 -140 30 -29
62 -28 92 3 24 23 25 30 25 138 0 126 -9 150 -62 163 -21 4 -33 0 -52 -20z"/>
<path d="M3805 2348 l-28 -22 6 -190 c9 -286 47 -539 119 -786 33 -116 105
-303 149 -392 36 -71 37 -111 4 -143 -29 -30 -80 -33 -145 -10 -23 8 -70 15
-104 15 -52 0 -71 -5 -116 -32 -54 -32 -57 -36 -131 -187 -77 -157 -103 -191
-145 -191 -13 0 -76 28 -141 61 -96 51 -128 62 -177 66 -84 7 -157 -31 -203
-102 -45 -71 -78 -105 -104 -105 -13 0 -73 16 -134 36 -473 153 -832 361
-1118 647 -97 96 -112 108 -139 105 -41 -4 -72 -44 -63 -81 9 -33 170 -198
285 -290 254 -205 567 -370 944 -499 177 -61 251 -68 322 -31 47 25 88 70 108
118 17 39 51 65 86 65 13 0 79 -28 145 -62 111 -58 125 -62 185 -62 77 0 133
25 177 78 15 19 55 94 87 166 33 72 68 138 80 146 26 18 82 18 136 -1 164 -58
329 46 330 209 0 37 -12 76 -54 170 -74 165 -91 209 -136 368 -66 233 -110
547 -110 796 0 106 -1 114 -25 137 -30 31 -54 31 -90 3z"/>
<path d="M1155 2290 c-52 -58 38 -616 107 -665 30 -20 50 -19 82 6 32 25 33
55 6 135 -32 93 -60 243 -66 361 -6 130 -9 147 -30 167 -22 23 -77 20 -99 -4z"/>
</g>
</svg>
